<svg aria-hidden="true" style="position: absolute; width: 0; height: 0; overflow: hidden;" version="1.1"
  xmlns="http://www.w3.org/2000/svg" xmlns:xlink="http://www.w3.org/1999/xlink">
  <defs>
    <symbol id="logo-amazon" viewBox="0 0 105 32">
      <path fill="#f90" style="fill: var(--color1, #f90)"
        d="M64.653 24.561c-6.055 4.469-14.832 6.845-22.392 6.845-10.595 0-20.135-3.917-27.353-10.434-0.567-0.513-0.061-1.212 0.62-0.816 7.789 4.533 17.422 7.262 27.37 7.262 6.71 0 14.087-1.393 20.876-4.271 1.024-0.435 1.883 0.674 0.88 1.414z">
      </path>
      <path fill="#f90" style="fill: var(--color1, #f90)"
        d="M67.171 21.684c-0.774-0.991-5.118-0.469-7.070-0.237-0.591 0.071-0.684-0.446-0.15-0.819 3.467-2.434 9.145-1.731 9.806-0.917 0.664 0.823-0.175 6.516-3.423 9.233-0.499 0.417-0.975 0.194-0.752-0.356 0.73-1.827 2.366-5.912 1.59-6.904z">
      </path>
      <path fill="#221f1f" style="fill: var(--color2, #221f1f)"
        d="M60.239 3.432c0.001 0.353 0.273 0.594 0.612 0.594l5.54 0.002-6.361 9.128c-0.389 0.584-0.395 1.24-0.395 1.625v2.399c0 0.347 0.386 0.746 0.754 0.548 3.608-1.916 7.938-1.729 11.201-0.019 0.4 0.209 0.782-0.195 0.782-0.541v-2.525c-0.034-0.34-0.145-0.689-0.562-0.922-1.852-1.040-4.010-1.347-6.047-1.299l5.49-7.841c0.509-0.704 0.795-1.148 0.8-1.489v-2.029c0-0.35-0.273-0.596-0.611-0.596l-10.602 0.001c-0.007-0-0.013-0-0.020-0-0.322 0-0.583 0.261-0.583 0.583 0 0.006 0 0.012 0 0.017v2.366zM81.179 0.161c4.786 0 7.375 4.11 7.375 9.336 0 5.049-2.858 9.057-7.375 9.057-4.696 0-7.257-4.111-7.257-9.232 0-5.156 2.589-9.161 7.257-9.161zM81.208 3.54c-2.379 0-2.529 3.239-2.529 5.26s-0.029 6.339 2.5 6.339c2.499 0 2.618-3.483 2.618-5.608 0-1.393-0.059-3.065-0.482-4.39-0.361-1.148-1.083-1.601-2.107-1.601zM51.788 10.299v-0.698c-2.332 0-4.797 0.5-4.797 3.248 0 1.396 0.723 2.339 1.962 2.339 0.904 0 1.719-0.559 2.232-1.466 0.633-1.117 0.603-2.165 0.603-3.422zM55.040 18.163c-0.213 0.192-0.603 0.198-0.762 0.075-1.102-0.852-1.849-2.149-1.849-2.149-1.771 1.804-3.025 2.347-5.317 2.347-2.716 0-4.829-1.679-4.829-5.029 0-2.618 1.419-4.399 3.441-5.271 1.749-0.77 4.194-0.909 6.065-1.118 0 0 0.155-2.021-0.392-2.758-0.426-0.571-1.146-0.838-1.81-0.838-1.196-0.006-2.352 0.646-2.582 1.898-0.065 0.357-0.33 0.659-0.608 0.628l-3.089-0.337c-0.28-0.039-0.493-0.276-0.493-0.563 0-0.039 0.004-0.077 0.012-0.114l-0.001 0.004c0.719-3.792 4.143-4.938 7.214-4.938 1.568 0 3.62 0.419 4.858 1.607 1.568 1.466 1.418 3.42 1.418 5.551v5.025c0 1.513 0.627 2.175 1.217 2.989 0.206 0.296 0.252 0.643-0.010 0.857-0.659 0.553-2.482 2.136-2.482 2.136zM9.504 10.299v-0.698c-2.331 0-4.796 0.5-4.796 3.248 0 1.396 0.723 2.339 1.962 2.339 0.904 0 1.719-0.559 2.232-1.466 0.633-1.117 0.602-2.165 0.602-3.422zM12.756 18.163c-0.213 0.192-0.602 0.198-0.761 0.075-1.103-0.852-1.849-2.149-1.849-2.149-1.771 1.804-3.025 2.347-5.318 2.347-2.714-0.001-4.828-1.68-4.828-5.030 0-2.618 1.419-4.399 3.439-5.271 1.75-0.77 4.195-0.909 6.065-1.118 0 0 0.157-2.021-0.392-2.758-0.425-0.571-1.146-0.838-1.809-0.838-1.198-0.006-2.353 0.646-2.582 1.898-0.066 0.357-0.33 0.659-0.608 0.628l-3.088-0.337c-0.28-0.037-0.493-0.275-0.493-0.562 0-0.040 0.004-0.079 0.012-0.116l-0.001 0.004c0.718-3.791 4.142-4.937 7.214-4.937 1.568 0 3.62 0.419 4.858 1.607 1.568 1.466 1.418 3.42 1.418 5.551v5.025c0 1.513 0.627 2.175 1.216 2.989 0.207 0.296 0.253 0.643-0.010 0.857-0.659 0.553-2.481 2.136-2.481 2.136zM22.189 8.834v8.768c-0.001 0.332-0.27 0.601-0.602 0.601 0 0 0 0 0 0h-3.221c-0.333 0-0.601-0.27-0.601-0.601v-16.491c0-0 0-0.001 0-0.001 0-0.332 0.269-0.601 0.601-0.601 0 0 0 0 0 0h3.010c0 0 0.001 0 0.001 0 0.333 0 0.602 0.27 0.602 0.602 0 0 0 0.001 0 0.001v2.114h0.061c0.783-2.091 2.257-3.066 4.244-3.066 2.017 0 3.281 0.976 4.185 3.066 0.784-2.091 2.559-3.066 4.455-3.066 1.357 0 2.831 0.558 3.733 1.811 1.025 1.393 0.815 3.413 0.815 5.191l-0.004 10.447v0.001c-0.007 0.329-0.276 0.594-0.607 0.594-0.005 0-0.010-0-0.015-0h-3.221c-0.324-0.018-0.578-0.277-0.578-0.593l-0.002-8.776c0-0.696 0.060-2.439-0.090-3.101-0.24-1.114-0.964-1.428-1.897-1.428-0.783 0-1.596 0.524-1.927 1.359s-0.302 2.229-0.302 3.17v8.776c-0.008 0.329-0.277 0.594-0.608 0.594-0.005 0-0.010-0-0.014-0h-3.222c-0.323-0.018-0.579-0.277-0.579-0.593l-0.003-8.776c0-1.847 0.301-4.564-1.988-4.564-2.318 0-2.227 2.647-2.227 4.564zM95.392 17.602v-8.907c0-1.115 0.073-2.148 0.523-3.159 0.303-0.627 0.997-1.3 1.858-1.3 0.739 0 2.021 0.098 2.021 3.445l-0.005 10.002 0 0.003c0.041 0.284 0.279 0.505 0.573 0.518h3.233c0.004 0 0.009 0 0.013 0 0.307 0 0.561-0.225 0.607-0.522v-10.416c0-1.603 0-3.832-0.845-5.155-0.904-1.428-2.318-1.951-3.764-1.951-2.227 0-3.492 1.079-4.395 3.343h-0.062v-2.523c0-0.191-0.254-0.472-0.603-0.472h-2.978c-0.332 0-0.601 0.271-0.601 0.603v16.49c0 0 0 0.001 0 0.001 0 0.332 0.269 0.602 0.601 0.602h3.221c0.333 0 0.602-0.27 0.602-0.602 0-0 0-0.001 0-0.001z">
      </path>
    </symbol>
    <symbol id="logo" viewBox="0 0 70 32">
      <path
        d="M25.845 30.311c-1.526 1.057-3.418 1.689-5.456 1.689-0.010 0-0.021-0-0.031-0h0.002c-0.015 0-0.032 0-0.049 0-2.565 0-4.901-0.977-6.657-2.58l0.008 0.007c-0.142-0.128 0-0.298 0.148-0.202 1.906 1.125 4.201 1.79 6.65 1.79 1.867 0 3.643-0.386 5.254-1.083l-0.086 0.033c0.255-0.107 0.461 0.165 0.217 0.346z">
      </path>
      <path
        d="M26.464 29.603c-0.191-0.246-1.255-0.118-1.737-0.059-0.142 0-0.163-0.106-0.037-0.202 0.852-0.597 2.245-0.426 2.404-0.224s-0.042 1.599-0.836 2.275c-0.122 0.101-0.239 0.048-0.186-0.085 0.18-0.453 0.577-1.46 0.392-1.705zM24.765 25.106v-0.586c-0-0.002-0-0.003-0-0.005 0-0.079 0.064-0.144 0.144-0.144 0.002 0 0.003 0 0.005 0h2.583c0.002-0 0.004-0 0.005-0 0.060 0 0.112 0.038 0.133 0.091l0 0.001c0.006 0.016 0.010 0.034 0.010 0.053 0 0.002-0 0.003-0 0.005v-0 0.501c0 0.085-0.069 0.192-0.196 0.368l-1.345 1.934c0.049-0.003 0.107-0.005 0.165-0.005 0.482 0 0.935 0.12 1.333 0.332l-0.015-0.007c0.080 0.045 0.134 0.127 0.138 0.223l0 0v0.624c0 0.085-0.095 0.186-0.191 0.133-0.398-0.211-0.87-0.335-1.371-0.335s-0.973 0.124-1.388 0.343l0.016-0.008c-0.090 0.048-0.185-0.048-0.185-0.133v-0.576c-0.001-0.013-0.001-0.029-0.001-0.045 0-0.131 0.036-0.253 0.099-0.357l-0.002 0.003 1.567-2.265h-1.355c-0.002 0-0.004 0-0.006 0-0.059 0-0.109-0.036-0.131-0.087l-0-0.001c-0.007-0.016-0.011-0.035-0.011-0.055 0-0 0-0.001 0-0.001v0zM29.9 25.132c-0.582 0-0.619 0.8-0.619 1.295s0 1.561 0.614 1.561 0.641-0.857 0.641-1.379c0.012-0.359-0.029-0.718-0.121-1.066-0.045-0.228-0.243-0.397-0.481-0.397-0.017 0-0.034 0.001-0.050 0.003l0.002-0 0.015-0.016zM29.9 24.296c1.17 0 1.806 1.017 1.806 2.301s-0.699 2.233-1.806 2.233c-1.106 0-1.779-1.012-1.779-2.275s0.635-2.26 1.779-2.26zM23.489 28.734c-0.026 0.017-0.058 0.027-0.093 0.027s-0.066-0.010-0.093-0.027l0.001 0c-0.179-0.151-0.33-0.327-0.45-0.524l-0.005-0.009c-0.287 0.357-0.724 0.584-1.213 0.584-0.032 0-0.063-0.001-0.094-0.003l0.004 0c-0.019 0.001-0.041 0.002-0.064 0.002-0.319 0-0.607-0.134-0.811-0.349l-0-0c-0.193-0.202-0.311-0.477-0.311-0.78 0-0.041 0.002-0.081 0.006-0.12l-0 0.005c-0-0.012-0.001-0.027-0.001-0.041 0-0.275 0.082-0.532 0.222-0.746l-0.003 0.005c0.151-0.23 0.363-0.409 0.615-0.514l0.009-0.003c0.441-0.152 0.949-0.25 1.478-0.271l0.011-0c0.005-0.044 0.008-0.096 0.008-0.148 0-0.193-0.038-0.377-0.106-0.544l0.003 0.010c-0.105-0.127-0.262-0.208-0.439-0.208-0.002 0-0.004 0-0.006 0h0c-0.014-0.001-0.029-0.002-0.045-0.002-0.287 0-0.527 0.199-0.59 0.466l-0.001 0.004c0 0.091-0.079 0.16-0.148 0.155l-0.757-0.059c-0.059-0.010-0.105-0.055-0.116-0.112l-0-0.001c-0.002-0.009-0.003-0.019-0.003-0.029s0.001-0.020 0.003-0.030l-0 0.001c0.174-0.933 1.016-1.215 1.768-1.215 0.431-0.016 0.854 0.124 1.191 0.394 0.381 0.362 0.344 0.848 0.344 1.369v1.241c0.003 0.275 0.111 0.539 0.302 0.735 0.026 0.027 0.042 0.064 0.042 0.104s-0.016 0.077-0.042 0.104l0-0-0.609 0.533-0.005-0.005zM22.695 26.794c0.028 0.291-0.023 0.584-0.148 0.847-0.1 0.202-0.296 0.342-0.527 0.362l-0.002 0c-0.307 0-0.482-0.234-0.482-0.581 0-0.676 0.603-0.799 1.175-0.799v0.17h-0.016zM13.132 28.735c-0.026 0.017-0.058 0.027-0.093 0.027s-0.066-0.010-0.093-0.027l0.001 0c-0.179-0.151-0.33-0.327-0.451-0.524l-0.005-0.009c-0.294 0.357-0.735 0.583-1.23 0.583-0.025 0-0.051-0.001-0.076-0.002l0.004 0c-0.014 0.001-0.030 0.001-0.046 0.001-0.318 0-0.605-0.133-0.809-0.347l-0-0c-0.194-0.203-0.313-0.478-0.313-0.782 0-0.033 0.001-0.065 0.004-0.097l-0 0.004c-0-0.013-0.001-0.029-0.001-0.045 0-0.275 0.081-0.53 0.221-0.744l-0.003 0.005c0.15-0.233 0.369-0.413 0.624-0.516 0.44-0.152 0.949-0.25 1.478-0.272l0.011-0c0.005-0.043 0.007-0.093 0.007-0.143 0-0.194-0.040-0.38-0.111-0.548l0.003 0.009c-0.098-0.127-0.25-0.208-0.421-0.208-0.006 0-0.013 0-0.019 0l0.001-0c-0.015-0.001-0.032-0.002-0.049-0.002-0.286 0-0.525 0.2-0.586 0.467l-0.001 0.004c0 0.090-0.080 0.159-0.148 0.154l-0.758-0.080c-0.059-0.010-0.104-0.055-0.116-0.112l-0-0.001c-0.002-0.009-0.003-0.019-0.003-0.029s0.001-0.020 0.003-0.030l-0 0.001c0.175-0.933 1.017-1.215 1.768-1.215 0.020-0.001 0.044-0.001 0.069-0.001 0.425 0 0.815 0.149 1.121 0.398l-0.003-0.003c0.387 0.362 0.349 0.848 0.349 1.369v1.241c-0.002 0.27 0.094 0.532 0.27 0.735 0.027 0.026 0.044 0.063 0.044 0.104 0 0.020-0.004 0.040-0.012 0.057l0-0.001c-0.008 0.019-0.019 0.034-0.033 0.048l-0 0-0.609 0.533 0.011-0.005zM12.337 26.795c0.005 0.047 0.008 0.101 0.008 0.157 0 0.251-0.058 0.488-0.16 0.7l0.004-0.010c-0.101 0.201-0.296 0.341-0.526 0.362l-0.003 0c-0.302 0-0.477-0.234-0.477-0.581 0-0.676 0.603-0.799 1.175-0.799v0.17h-0.022zM15.44 26.438c0-0.474 0-1.123 0.529-1.123s0.482 0.665 0.482 1.123v2.164c0 0 0 0 0 0 0 0.077 0.061 0.14 0.137 0.144h0.789c0.002 0 0.004 0 0.006 0 0.060 0 0.111-0.035 0.134-0.086l0-0.001c0.008-0.017 0.012-0.036 0.013-0.057v-2.164c-0.003-0.046-0.005-0.1-0.005-0.154 0-0.224 0.029-0.44 0.083-0.647l-0.004 0.018c0.077-0.191 0.257-0.326 0.47-0.336l0.001-0c0.018-0.003 0.038-0.004 0.059-0.004 0.208 0 0.38 0.154 0.407 0.354l0 0.002c0.018 0.255 0.018 0.511 0 0.767v2.163c0.003 0.078 0.065 0.14 0.143 0.144h0.789c0.002 0 0.004 0 0.006 0 0.059 0 0.111-0.035 0.134-0.086l0-0.001c0.008-0.017 0.012-0.036 0.013-0.057v-2.579c0.015-0.097 0.024-0.208 0.024-0.322 0-0.349-0.083-0.678-0.231-0.969l0.006 0.012c-0.206-0.273-0.53-0.447-0.895-0.447-0.006 0-0.011 0-0.017 0h0.001c-0.010-0-0.021-0-0.032-0-0.239 0-0.46 0.074-0.642 0.201l0.004-0.002c-0.197 0.136-0.346 0.331-0.425 0.558-0.069-0.225-0.204-0.413-0.383-0.547l-0.003-0.002c-0.173-0.13-0.392-0.208-0.628-0.208-0.003 0-0.006 0-0.009 0h0c-0.235-0.010-0.466 0.059-0.658 0.196s-0.333 0.334-0.4 0.56v-0.533c-0.004-0.079-0.068-0.143-0.148-0.144h-0.683c-0.002-0-0.003-0-0.005-0-0.079 0-0.143 0.064-0.143 0.143 0 0 0 0.001 0 0.001v-0 4.065c-0 0.002-0 0.004-0 0.006 0 0.060 0.037 0.112 0.089 0.134l0.001 0c0.015 0.006 0.033 0.010 0.052 0.010 0.002 0 0.004-0 0.006-0h0.809c0 0 0.001 0 0.001 0 0.061 0 0.112-0.038 0.132-0.092l0-0.001c0.006-0.015 0.009-0.033 0.009-0.051 0-0.002-0-0.004-0-0.006v0-2.131l-0.021-0.016zM33.374 28.596c0 0.001 0 0.003 0 0.005 0 0.080-0.065 0.144-0.144 0.144-0.001 0-0.003-0-0.004-0h-0.788c-0 0-0 0-0.001 0-0.081 0-0.148-0.066-0.148-0.148 0-0 0-0.001 0-0.001v0-4.065c0.003-0.080 0.068-0.143 0.148-0.144h0.731c0.003-0 0.006-0 0.009-0 0.068 0 0.124 0.047 0.139 0.11l0 0.001v0.624c0.055-0.239 0.19-0.452 0.383-0.603s0.431-0.229 0.676-0.223c0.010-0 0.022-0.001 0.034-0.001 0.371 0 0.697 0.192 0.884 0.481l0.002 0.004c0.137 0.306 0.217 0.664 0.217 1.040 0 0.080-0.004 0.16-0.011 0.238l0.001-0.010v2.568c-0.008 0.072-0.069 0.128-0.143 0.128-0.002 0-0.004-0-0.006-0h-0.763c-0.072-0.002-0.13-0.057-0.137-0.127l-0-0.001v-2.467c0-0.826-0.318-0.847-0.498-0.847-0.205 0.012-0.377 0.139-0.454 0.317l-0.001 0.003c-0.082 0.202-0.13 0.436-0.13 0.681 0 0.034 0.001 0.068 0.003 0.101l-0-0.005v2.196zM2.61 28.734l-0.063-0.416c-0.186 0.163-0.4 0.291-0.63 0.379-0.202 0.085-0.436 0.136-0.682 0.138h-0.001c-0.020 0.001-0.043 0.002-0.066 0.002-0.322 0-0.616-0.124-0.835-0.328l0.001 0.001c-0.21-0.204-0.341-0.489-0.341-0.805 0-0.021 0.001-0.041 0.002-0.062l-0 0.003c-0.001-0.013-0.001-0.027-0.001-0.042 0-0.356 0.16-0.675 0.412-0.888l0.002-0.001c0.28-0.217 0.637-0.348 1.025-0.348 0.029 0 0.058 0.001 0.086 0.002l-0.004-0c0.358 0.006 0.702 0.056 1.029 0.145l-0.029-0.007v-0.533c0.003-0.025 0.005-0.055 0.005-0.084 0-0.201-0.076-0.385-0.201-0.524l0.001 0.001c-0.157-0.113-0.354-0.181-0.566-0.181-0.034 0-0.067 0.002-0.1 0.005l0.004-0c-0.501 0.007-0.979 0.098-1.423 0.26l0.030-0.010v-0.554c0.202-0.105 0.436-0.187 0.683-0.232l0.015-0.002c0.245-0.054 0.527-0.085 0.817-0.085 0.005 0 0.011 0 0.016 0h-0.001c0.394-0.033 0.787 0.078 1.106 0.314 0.224 0.22 0.364 0.526 0.364 0.865 0 0.033-0.001 0.066-0.004 0.099l0-0.004v2.893h-0.651zM1.419 28.238c0.418-0.017 0.798-0.169 1.099-0.413l-0.003 0.003v-0.81c-0.252-0.067-0.542-0.106-0.841-0.106h-0c-0.593 0-0.895 0.234-0.895 0.692-0.001 0.012-0.001 0.025-0.001 0.039 0 0.167 0.065 0.318 0.171 0.431l-0-0c0.115 0.103 0.267 0.167 0.435 0.167 0.015 0 0.029-0 0.043-0.001l-0.002 0h-0.005zM7.153 28.734v-2.707c0.019-0.222-0.043-0.443-0.174-0.623-0.12-0.123-0.288-0.2-0.473-0.2-0.020 0-0.039 0.001-0.058 0.003l0.003-0c-0.441 0.007-0.869 0.148-1.229 0.405v3.122h-0.789v-4.049h0.657l0.079 0.448c0.432-0.346 0.985-0.558 1.587-0.565h0.002c0.026-0.002 0.056-0.003 0.086-0.003 0.307 0 0.586 0.119 0.794 0.313l-0.001-0.001c0.19 0.212 0.306 0.494 0.306 0.803 0 0.036-0.002 0.072-0.005 0.108l0-0.005v2.973l-0.784-0.022zM40.633 28.579c-0.296 0.151-0.646 0.24-1.016 0.24-0.015 0-0.030-0-0.045-0l0.002 0c-0.037 0.003-0.080 0.004-0.123 0.004-0.51 0-0.971-0.205-1.307-0.537l0 0c-0.315-0.433-0.504-0.976-0.504-1.563s0.189-1.13 0.51-1.571l-0.005 0.008c0.339-0.332 0.805-0.537 1.318-0.537 0.045 0 0.090 0.002 0.134 0.005l-0.006-0c0.004-0 0.009-0 0.013-0 0.359 0 0.698 0.082 1.001 0.229l-0.014-0.006v0.565c-0.26-0.095-0.561-0.155-0.874-0.165l-0.005-0c-0.034-0.003-0.074-0.005-0.114-0.005-0.329 0-0.627 0.132-0.844 0.346l0-0c-0.186 0.259-0.297 0.581-0.297 0.93 0 0.048 0.002 0.095 0.006 0.141l-0-0.006v0.101c-0.031 0.379 0.074 0.758 0.297 1.066 0.214 0.213 0.508 0.345 0.834 0.345 0.036 0 0.072-0.002 0.108-0.005l-0.005 0c0.337-0.006 0.658-0.064 0.959-0.167l-0.022 0.007v0.575zM43.101 28.851c-0.031 0.002-0.068 0.003-0.104 0.003-0.516 0-0.981-0.218-1.309-0.566l-0.001-0.001c-0.321-0.436-0.514-0.984-0.514-1.577s0.193-1.141 0.52-1.585l-0.005 0.007c0.367-0.349 0.864-0.564 1.411-0.564s1.045 0.215 1.412 0.565l-0.001-0.001c0.321 0.436 0.514 0.984 0.514 1.577s-0.193 1.141-0.52 1.585l0.005-0.007c-0.328 0.349-0.793 0.567-1.309 0.567-0.035 0-0.070-0.001-0.104-0.003l0.005 0zM43.101 28.212c0.741 0 1.117-0.501 1.117-1.508s-0.376-1.497-1.117-1.497c-0.742 0-1.117 0.496-1.117 1.497s0.37 1.509 1.117 1.509zM51.123 28.734v-2.749c0.002-0.022 0.003-0.047 0.003-0.073 0-0.191-0.056-0.368-0.153-0.517l0.002 0.004c-0.105-0.119-0.259-0.194-0.429-0.194-0.017 0-0.033 0.001-0.050 0.002l0.002-0c-0.434 0.008-0.836 0.141-1.173 0.362l0.008-0.005c0.003 0.041 0.003 0.082 0 0.122v3.049h-0.784v-2.749c0.001-0.019 0.002-0.042 0.002-0.064 0-0.193-0.056-0.374-0.153-0.525l0.002 0.004c-0.105-0.119-0.258-0.194-0.429-0.194-0.017 0-0.033 0.001-0.050 0.002l0.002-0c-0.432 0.003-0.833 0.134-1.167 0.356l0.008-0.005v3.197h-0.784v-4.049h0.656l0.080 0.41c0.409-0.312 0.92-0.509 1.477-0.533l0.005-0c0.035-0.004 0.075-0.007 0.116-0.007 0.389 0 0.725 0.224 0.887 0.55l0.003 0.006c0.433-0.343 0.986-0.554 1.587-0.564l0.002-0c0.023-0.002 0.050-0.003 0.077-0.003 0.298 0 0.568 0.119 0.765 0.312l-0-0c0.204 0.255 0.302 0.58 0.27 0.906v2.973l-0.784-0.022zM53.066 30.375v-5.691h0.657l0.074 0.416c0.349-0.329 0.821-0.532 1.34-0.533h0c0.025-0.002 0.054-0.002 0.083-0.002 0.454 0 0.86 0.207 1.127 0.533l0.002 0.003c0.317 0.444 0.474 0.983 0.445 1.529 0.003 0.044 0.004 0.095 0.004 0.146 0 0.546-0.178 1.051-0.48 1.459l0.005-0.007c-0.279 0.361-0.712 0.592-1.199 0.592-0.016 0-0.032-0-0.048-0.001l0.002 0c-0.010 0-0.022 0-0.035 0-0.462 0-0.881-0.178-1.194-0.47l0.001 0.001v2.024h-0.784zM54.914 25.207c-0.401 0.005-0.769 0.142-1.063 0.371l0.004-0.003v2.222c0.301 0.242 0.673 0.376 1.059 0.383 0.731 0 1.091-0.495 1.091-1.481 0.004-0.045 0.006-0.097 0.006-0.15 0-0.36-0.101-0.696-0.275-0.983l0.005 0.008c-0.172-0.226-0.442-0.371-0.745-0.371-0.029 0-0.057 0.001-0.085 0.004l0.004-0zM60.124 28.733l-0.063-0.415c-0.186 0.163-0.4 0.291-0.63 0.379-0.203 0.085-0.44 0.135-0.687 0.138h-0.001c-0.019 0.001-0.041 0.002-0.063 0.002-0.323 0-0.618-0.124-0.838-0.328l0.001 0.001c-0.207-0.206-0.335-0.491-0.335-0.806 0-0.020 0.001-0.041 0.002-0.061l-0 0.003c-0.001-0.014-0.001-0.031-0.001-0.047 0-0.354 0.158-0.67 0.407-0.883l0.002-0.001c0.281-0.217 0.639-0.348 1.027-0.348 0.030 0 0.060 0.001 0.090 0.002l-0.004-0c0.358 0.005 0.702 0.056 1.029 0.145l-0.029-0.007v-0.533c0.002-0.023 0.004-0.050 0.004-0.077 0-0.204-0.076-0.39-0.2-0.531l0.001 0.001c-0.157-0.113-0.354-0.181-0.566-0.181-0.034 0-0.067 0.002-0.1 0.005l0.004-0c-0.503 0.006-0.982 0.098-1.427 0.26l0.030-0.010v-0.554c0.202-0.105 0.436-0.187 0.683-0.232l0.015-0.002c0.247-0.054 0.53-0.085 0.82-0.085 0.004 0 0.007 0 0.011 0h-0.001c0.040-0.003 0.086-0.005 0.133-0.005 0.368 0 0.709 0.12 0.984 0.323l-0.005-0.003c0.222 0.219 0.359 0.524 0.359 0.86 0 0.035-0.002 0.070-0.004 0.104l0-0.004v2.893h-0.646zM58.933 28.238c0.418-0.017 0.798-0.169 1.099-0.413l-0.004 0.003v-0.81c-0.252-0.067-0.542-0.106-0.841-0.106h-0c-0.598 0-0.895 0.234-0.895 0.692-0.001 0.013-0.002 0.029-0.002 0.045 0 0.164 0.063 0.313 0.166 0.425l-0-0c0.131 0.116 0.302 0.175 0.477 0.165zM64.657 28.734v-2.707c0.002-0.022 0.003-0.047 0.003-0.073 0-0.206-0.065-0.397-0.175-0.553l0.002 0.003c-0.12-0.123-0.288-0.2-0.473-0.2-0.020 0-0.039 0.001-0.058 0.003l0.002-0c-0.462 0.007-0.888 0.158-1.235 0.409l0.006-0.004v3.122h-0.784v-4.049h0.657l0.079 0.448c0.432-0.346 0.985-0.558 1.587-0.565h0.001c0.026-0.002 0.057-0.003 0.087-0.003 0.308 0 0.588 0.119 0.798 0.313l-0.001-0.001c0.211 0.244 0.317 0.562 0.296 0.884v2.974h-0.794zM69.857 24.685l-1.832 4.758c-0.097 0.3-0.268 0.573-0.498 0.788-0.209 0.166-0.47 0.251-0.736 0.24-0.004 0-0.009 0-0.013 0-0.216 0-0.422-0.041-0.612-0.115l0.011 0.004v-0.566c0.147 0.037 0.298 0.055 0.45 0.054 0.012 0.001 0.025 0.001 0.039 0.001 0.162 0 0.311-0.057 0.428-0.152l-0.001 0.001c0.143-0.15 0.247-0.333 0.302-0.532l0.154-0.405-1.621-4.087h0.842l1.159 3.314 1.117-3.314h0.81v0.010zM15.737 8.322h-13.454v-0.075c0.048-0.476 0.158-0.944 0.328-1.39 0.588-1.695 1.72-3.075 3.182-3.966l0.033-0.019c0.899-0.521 1.979-0.829 3.13-0.829 0.076 0 0.152 0.001 0.227 0.004l-0.011-0c0.88-0.005 1.752 0.163 2.568 0.496 0.81 0.329 1.505 0.783 2.094 1.345l-0.003-0.002c0.571 0.548 1.039 1.198 1.375 1.921l0.016 0.039c0.334 0.699 0.53 1.519 0.53 2.385 0 0.004 0 0.009 0 0.013v-0.001l-0.016 0.080zM9.292 0c-0.036-0.001-0.079-0.001-0.122-0.001-1.307 0-2.55 0.273-3.675 0.764l0.059-0.023c-1.149 0.514-2.127 1.213-2.94 2.069l-0.004 0.004c-0.816 0.867-1.471 1.896-1.911 3.032l-0.022 0.064c-0.429 1.124-0.678 2.423-0.678 3.781 0 0.038 0 0.076 0.001 0.114l-0-0.006c-0.001 0.042-0.001 0.091-0.001 0.14 0 1.383 0.245 2.708 0.694 3.935l-0.025-0.080c0.443 1.209 1.091 2.247 1.91 3.122l-0.005-0.005c0.82 0.862 1.811 1.553 2.919 2.020l0.057 0.021c1.104 0.462 2.387 0.73 3.732 0.73 0.047 0 0.094-0 0.14-0.001l-0.007 0c0.036 0 0.078 0.001 0.121 0.001 1.611 0 3.143-0.343 4.524-0.961l-0.070 0.028c1.432-0.677 2.602-1.709 3.427-2.984l0.019-0.032-1.668-1.412c-0.651 1.027-1.548 1.846-2.61 2.386l-0.038 0.017c-1.056 0.566-2.31 0.9-3.641 0.906h-0.002c-1.234 0.050-2.46-0.235-3.547-0.826-0.873-0.516-1.603-1.179-2.178-1.962l-0.014-0.020c-0.496-0.672-0.884-1.459-1.116-2.31l-0.012-0.050c-0.173-0.593-0.284-1.278-0.307-1.985l-0-0.013v-0.074h15.715v-1.657c-0.009-1.15-0.221-2.247-0.604-3.262l0.021 0.065c-0.394-1.087-0.96-2.022-1.675-2.822l0.007 0.008c-0.747-0.822-1.648-1.49-2.659-1.961l-0.051-0.021c-1.057-0.472-2.29-0.748-3.587-0.748-0.063 0-0.125 0.001-0.188 0.002l0.009-0v0.005zM36.498 8.323h-13.449v-0.075c0.048-0.476 0.158-0.944 0.328-1.39 0.278-0.796 0.653-1.486 1.121-2.102l-0.014 0.019c0.578-0.762 1.282-1.394 2.085-1.878l0.033-0.019c0.897-0.522 1.973-0.83 3.122-0.83 0.079 0 0.157 0.001 0.236 0.004l-0.011-0c0.878-0.005 1.749 0.163 2.563 0.496 0.821 0.325 1.524 0.779 2.121 1.345l-0.003-0.003c0.552 0.549 1.003 1.199 1.323 1.92l0.016 0.040c0.348 0.751 0.529 1.569 0.529 2.397v0.075zM30.059 0c-1.285-0.017-2.56 0.235-3.743 0.741-1.145 0.513-2.119 1.21-2.93 2.064l-0.004 0.004c-0.817 0.866-1.473 1.895-1.911 3.032l-0.022 0.064c-0.433 1.122-0.684 2.42-0.684 3.777 0 0.041 0 0.083 0.001 0.124l-0-0.006c-0 0.040-0.001 0.087-0.001 0.134 0 1.384 0.243 2.712 0.688 3.942l-0.026-0.081c0.447 1.209 1.096 2.246 1.916 3.122l-0.005-0.005c0.819 0.862 1.81 1.553 2.918 2.020l0.057 0.021c1.103 0.462 2.385 0.73 3.729 0.73 0.048 0 0.096-0 0.144-0.001l-0.007 0c0.036 0 0.078 0.001 0.121 0.001 1.611 0 3.143-0.343 4.524-0.961l-0.070 0.028c1.429-0.678 2.595-1.709 3.417-2.984l0.019-0.032-1.668-1.412c-0.656 1.032-1.562 1.851-2.636 2.386l-0.038 0.017c-1.056 0.566-2.31 0.9-3.641 0.906h-0.002c-1.235 0.050-2.461-0.235-3.548-0.826-0.872-0.516-1.602-1.179-2.178-1.962l-0.014-0.020c-0.493-0.672-0.875-1.46-1.101-2.311l-0.011-0.049c-0.173-0.593-0.284-1.278-0.307-1.985l-0-0.013v-0.074h15.736v-1.657c-0.004-1.148-0.21-2.246-0.583-3.263l0.021 0.066c-0.393-1.087-0.96-2.022-1.675-2.822l0.007 0.008c-0.747-0.821-1.646-1.488-2.654-1.96l-0.051-0.022c-1.059-0.472-2.294-0.747-3.594-0.747-0.060 0-0.12 0.001-0.18 0.002l0.009-0-0.025 0.005zM59.499 17.631c-1.069 0.014-2.129-0.197-3.113-0.618-0.896-0.392-1.705-0.96-2.377-1.673-0.641-0.69-1.149-1.513-1.478-2.422l-0.016-0.050c-0.325-0.902-0.513-1.942-0.513-3.026s0.188-2.125 0.533-3.090l-0.020 0.064c0.346-0.96 0.854-1.785 1.498-2.483l-0.004 0.005c0.658-0.695 1.448-1.257 2.331-1.65l0.046-0.018c0.92-0.391 1.99-0.618 3.113-0.618s2.193 0.227 3.167 0.638l-0.054-0.020c0.929 0.402 1.719 0.964 2.368 1.658l0.004 0.004c0.648 0.692 1.16 1.519 1.489 2.434l0.015 0.049c0.684 1.959 0.684 4.093 0 6.053-0.347 0.959-0.857 1.782-1.503 2.476l0.004-0.004c-0.658 0.698-1.448 1.262-2.331 1.655l-0.046 0.018c-0.983 0.422-2.044 0.633-3.113 0.618zM59.499 0c-0.019-0-0.042-0-0.065-0-1.395 0-2.727 0.272-3.944 0.766l0.070-0.025c-1.21 0.48-2.242 1.173-3.096 2.040l-0.001 0.001c-0.845 0.87-1.526 1.906-1.989 3.053l-0.023 0.064c-0.453 1.133-0.716 2.446-0.716 3.82 0 0.043 0 0.086 0.001 0.129l-0-0.007c-0 0.032-0.001 0.070-0.001 0.108 0 1.384 0.267 2.705 0.751 3.916l-0.025-0.071c0.486 1.211 1.167 2.246 2.014 3.119l-0.002-0.002c0.855 0.864 1.883 1.555 3.026 2.019l0.061 0.022c1.14 0.462 2.462 0.73 3.847 0.73 0.034 0 0.069-0 0.103-0l-0.005 0c0.032 0 0.071 0.001 0.109 0.001 1.376 0 2.689-0.268 3.89-0.755l-0.069 0.025c1.208-0.486 2.239-1.178 3.098-2.042l0-0c0.86-0.865 1.549-1.901 2.011-3.053l0.022-0.062c0.459-1.174 0.725-2.533 0.725-3.954s-0.266-2.78-0.751-4.030l0.026 0.076c-0.489-1.213-1.177-2.249-2.034-3.118l0.001 0.001c-0.862-0.857-1.894-1.545-3.041-2.008l-0.062-0.022c-1.132-0.462-2.446-0.731-3.822-0.731-0.037 0-0.075 0-0.112 0.001l0.006-0v-0.010zM41.513 19.192h2.282v-10.209c-0.007-0.885 0.116-1.767 0.365-2.616 0.248-0.82 0.636-1.531 1.141-2.141l-0.008 0.010c0.517-0.611 1.164-1.096 1.9-1.415l0.033-0.013c0.852-0.361 1.77-0.542 2.695-0.533v-2.132c-2.648 0.054-4.739 0.874-6.184 2.429-2.377 2.552-2.224 6.261-2.224 6.298v10.32z">
      </path>
    </symbol>
    <symbol id="slider-icon-1" viewBox="0 0 21 32">
      <path fill="none" stroke="#fff" style="stroke: var(--color3, #fff)" stroke-linejoin="round" stroke-linecap="round"
        stroke-miterlimit="4" stroke-width="1.12"
        d="M5.043 25.229h11.398M6.671 28.073h8.142M13.184 30.914h-4.885M16.393 22.386c0-1.529 0.383-3.035 1.116-4.385l2.41-4.454c0.014-0.026 0.029-0.051 0.043-0.078l0.014-0.028h-0.005c0.483-0.991 0.766-2.156 0.768-3.387v-0.001c0-4.876-4.476-8.831-9.997-8.831s-9.996 3.954-9.996 8.831c0 1.202 0.276 2.344 0.767 3.387h-0.004l0.015 0.029c0.013 0.026 0.028 0.053 0.043 0.078l2.411 4.452c0.701 1.268 1.114 2.779 1.114 4.387v0">
      </path>
    </symbol>
    <symbol id="slider-icon-2" viewBox="0 0 32 32">
      <path fill="none" stroke="#fff" style="stroke: var(--color3, #fff)" stroke-linejoin="round" stroke-linecap="round"
        stroke-miterlimit="4" stroke-width="1.12"
        d="M26.716 26.7c-5.899 5.828-15.465 5.828-21.363 0-2.732-2.686-4.425-6.422-4.425-10.553s1.693-7.867 4.423-10.551l0.002-0.002c5.899-5.829 15.465-5.829 21.363 0 2.732 2.686 4.424 6.422 4.424 10.553s-1.693 7.866-4.422 10.551l-0.002 0.002z">
      </path>
      <path fill="none" stroke="#fff" style="stroke: var(--color3, #fff)" stroke-linejoin="round" stroke-linecap="round"
        stroke-miterlimit="4" stroke-width="1.12"
        d="M20.612 23.383c-0.586 0.586-1.284 1.061-2.059 1.389l-0.042 0.016c-0.741 0.316-1.603 0.5-2.509 0.5-0.889 0-1.737-0.177-2.51-0.499l0.043 0.016c-0.82-0.339-1.521-0.809-2.111-1.392l0.001 0.001c-0.588-0.58-1.064-1.273-1.392-2.043l-0.016-0.042c-0.308-0.72-0.488-1.557-0.488-2.437 0-0.896 0.186-1.748 0.521-2.52l-0.016 0.041c0.35-0.809 0.83-1.498 1.421-2.074l0.001-0.001c1.172-1.14 2.774-1.843 4.54-1.843 0.010 0 0.020 0 0.029 0h-0.002c1.776 0.004 3.384 0.719 4.556 1.874l-0.001-0.001c1.165 1.147 1.888 2.739 1.897 4.5v0.002c0 0.004 0 0.010 0 0.015 0 1.757-0.713 3.347-1.864 4.498l-0 0z">
      </path>
      <path fill="none" stroke="#fff" style="stroke: var(--color3, #fff)" stroke-linejoin="round" stroke-linecap="round"
        stroke-miterlimit="4" stroke-width="1.12" d="M16.034 16.729v4.265"></path>
      <path fill="none" stroke="#fff" style="stroke: var(--color3, #fff)" stroke-linejoin="round" stroke-linecap="round"
        stroke-miterlimit="4" stroke-width="1.12"
        d="M17.561 8.313c-0.39 0.378-0.924 0.612-1.511 0.612-0.004 0-0.008 0-0.012-0h0.001c-0.591-0.002-1.127-0.24-1.517-0.625l0 0c-0.388-0.382-0.629-0.912-0.632-1.498v-0.001c0-0.002 0-0.005 0-0.008 0-0.584 0.236-1.113 0.619-1.497l-0 0c0.39-0.378 0.923-0.611 1.51-0.611 0.004 0 0.008 0 0.012 0h-0.001c0.569 0.003 1.114 0.228 1.517 0.625s0.63 0.936 0.633 1.498c0 0.002 0 0.005 0 0.008 0 0.584-0.236 1.113-0.619 1.496l0-0z">
      </path>
    </symbol>
    <symbol id="slider-icon-3" viewBox="0 0 22 32">
      <path fill="none" stroke="#fefefe" style="stroke: var(--color4, #fefefe)" stroke-linejoin="miter"
        stroke-linecap="butt" stroke-miterlimit="4" stroke-width="1.0435"
        d="M15.455 6.503c-1.342-0.807-2.962-1.285-4.694-1.285-0.005 0-0.010 0-0.014 0h0.001c-1.707 0-3.306 0.462-4.68 1.268M18.897 3.31c-2.251-1.667-5.082-2.668-8.147-2.668-0.008 0-0.015 0-0.023 0h0.001c-0.007 0-0.014-0-0.022-0-3.036 0-5.843 0.982-8.119 2.646l0.039-0.027">
      </path>
      <path fill="none" stroke="#fefefe" style="stroke: var(--color4, #fefefe)" stroke-linejoin="miter"
        stroke-linecap="butt" stroke-miterlimit="4" stroke-width="1.0435"
        d="M14.278 31.383h-6.991c-3.632 0-6.576-2.944-6.576-6.577v-6.991c0-3.631 2.944-6.577 6.576-6.577h6.991c3.632 0 6.577 2.944 6.577 6.577v0 6.991c0 0 0 0 0 0.001 0 3.632-2.944 6.576-6.576 6.576-0 0-0 0-0.001 0h0z">
      </path>
      <path fill="none" stroke="#fefefe" style="stroke: var(--color4, #fefefe)" stroke-linejoin="miter"
        stroke-linecap="butt" stroke-miterlimit="4" stroke-width="1.0435"
        d="M7.84 21.311c0-1.625 1.317-2.943 2.943-2.943s2.943 1.317 2.943 2.943c0 1.625-1.317 2.943-2.943 2.943v0c-1.625 0-2.943-1.317-2.943-2.943v0z">
      </path>
    </symbol>

    <symbol id="close-burger" viewBox="0 0 32 32">
      <path
        d="M23.733 10.304l-1.504-1.504-5.963 5.963-5.963-5.963-1.504 1.504 5.963 5.963-5.963 5.963 1.504 1.504 5.963-5.963 5.963 5.963 1.504-1.504-5.963-5.963 5.963-5.963z">
      </path>
    </symbol>

    <symbol id="open-burger" viewBox="0 0 32 32">
      <path
        d="M6.4 11.733v-2.133h19.2v2.133h-19.2zM6.4 17.067h19.2v-2.133h-19.2v2.133zM6.4 22.4h19.2v-2.133h-19.2v2.133z">
      </path>
    </symbol>

    <symbol id="functions-icon-1" viewBox="0 0 32 32">
      <path fill="none" stroke="#2468ff" style="stroke: var(--color1, #2468ff)" stroke-linejoin="round"
        stroke-linecap="round" stroke-miterlimit="4" stroke-width="0.8101"
        d="M23.668 19.064c0-1.86-1.506-3.369-3.363-3.369h-3.671l-0.509-6.595c-0.051-0.594-0.546-1.057-1.15-1.057-0.635 0-1.149 0.512-1.154 1.146v0l0.010 13.244-2.341-2.050c-0.435-0.383-1.009-0.616-1.637-0.616-0.594 0-1.14 0.209-1.567 0.557l0.005-0.004s4.103 5.015 7.038 6.406">
      </path>
      <path fill="none" stroke="#2468ff" style="stroke: var(--color1, #2468ff)" stroke-linejoin="round"
        stroke-linecap="round" stroke-miterlimit="4" stroke-width="0.8101"
        d="M11.106 11.369v-3.597c0-0 0-0.001 0-0.001 0-1.221 0.989-2.21 2.209-2.211h3.314c1.22 0.001 2.209 0.99 2.209 2.21 0 0.001 0 0.002 0 0.003v-0 3.597">
      </path>
      <path fill="none" stroke="#2468ff" style="stroke: var(--color1, #2468ff)" stroke-linejoin="miter"
        stroke-linecap="butt" stroke-miterlimit="4" stroke-width="0.8101"
        d="M21.463 0.39h-10.927c-5.604 0-10.146 4.543-10.146 10.147v10.927c0 5.604 4.543 10.146 10.147 10.146h10.927c5.604 0 10.146-4.543 10.146-10.147v-10.926c0-5.604-4.543-10.146-10.147-10.146z">
      </path>
    </symbol>

    <symbol id="functions-icon-2" viewBox="0 0 32 32">
      <path fill="none" stroke="#2468ff" style="stroke: var(--color1, #2468ff)" stroke-linejoin="round"
        stroke-linecap="round" stroke-miterlimit="4" stroke-width="0.8101" d="M12.479 15.473l2.328 2.322 4.815-4.803">
      </path>
      <path fill="none" stroke="#2468ff" style="stroke: var(--color1, #2468ff)" stroke-linejoin="round"
        stroke-linecap="round" stroke-miterlimit="4" stroke-width="0.8101"
        d="M16.541 26.712c1.902-1.050 8.687-5.634 8.954-17.72 0.009-0.437-0.265-0.844-0.679-0.988-2.573-0.887-5.566-1.399-8.767-1.399h0.003c-3.2 0-6.193 0.513-8.767 1.399-0.415 0.143-0.689 0.55-0.679 0.988 0.267 12.086 7.052 16.67 8.953 17.719 0.142 0.080 0.311 0.128 0.491 0.128s0.35-0.047 0.496-0.13l-0.005 0.003z">
      </path>
      <path fill="none" stroke="#2468ff" style="stroke: var(--color1, #2468ff)" stroke-linejoin="miter"
        stroke-linecap="butt" stroke-miterlimit="4" stroke-width="0.8101"
        d="M21.463 0.39h-10.927c-5.604 0-10.146 4.543-10.146 10.147v10.927c0 5.604 4.543 10.146 10.147 10.146h10.927c5.604 0 10.146-4.543 10.146-10.147v-10.926c0-5.604-4.543-10.146-10.147-10.146z">
      </path>
    </symbol>

    <symbol id="functions-icon-3" viewBox="0 0 32 32">
      <path fill="none" stroke="#2468ff" style="stroke: var(--color1, #2468ff)" stroke-linejoin="miter"
        stroke-linecap="butt" stroke-miterlimit="4" stroke-width="0.8101"
        d="M21.463 0.39h-10.927c-5.604 0-10.146 4.543-10.146 10.147v10.927c0 5.604 4.543 10.146 10.147 10.146h10.927c5.604 0 10.146-4.543 10.146-10.147v-10.926c0-5.604-4.543-10.146-10.147-10.146z">
      </path>
      <path fill="none" stroke="#2468ff" style="stroke: var(--color1, #2468ff)" stroke-linejoin="round"
        stroke-linecap="round" stroke-miterlimit="4" stroke-width="0.8101"
        d="M8.973 14.46v-1.932c0-2.177 1.631-3.942 3.643-3.942h6.671c2.012 0 3.642 1.765 3.642 3.943v1.932M8.973 16.138v3.611c0 2.177 1.631 3.942 3.643 3.942h6.671c2.012 0 3.642-1.765 3.642-3.942v-3.611">
      </path>
      <path fill="none" stroke="#2468ff" style="stroke: var(--color1, #2468ff)" stroke-linejoin="round"
        stroke-linecap="round" stroke-miterlimit="4" stroke-width="0.8101"
        d="M10.738 12.55l-1.765 1.911-1.765-1.911M21.165 18.048l1.764-1.909 1.765 1.909"></path>
    </symbol>

    <symbol id="center-icon-1" viewBox="0 0 32 32">
      <path stroke-linejoin="round" stroke-linecap="round" stroke-miterlimit="4" stroke-width="1.1111"
        d="M28.804 11.703c0 6.172-5.941 11.177-13.272 11.177-7.329 0-13.271-5.004-13.271-11.177s5.942-11.177 13.271-11.177c7.331 0 13.272 5.004 13.272 11.177z">
      </path>
      <path stroke-linejoin="round" stroke-linecap="round" stroke-miterlimit="4" stroke-width="1.1111"
        d="M12.199 25.807l-3.381 5.597-2.027-5.157-6.165 1.694 3.38-5.595M18.866 25.807l3.382 5.597 2.027-5.157 6.166 1.694-3.381-5.595">
      </path>
    </symbol>

    <symbol id="center-icon-2" viewBox="0 0 32 32">
      <path stroke-linejoin="round" stroke-linecap="round" stroke-miterlimit="4" stroke-width="1.1111"
        d="M20.6 5.162c-0 2.56-2.076 4.635-4.636 4.635s-4.636-2.075-4.636-4.636c0-0 0-0 0-0v0c0-2.56 2.075-4.636 4.636-4.636s4.636 2.075 4.636 4.636v0z">
      </path>
      <path stroke-linejoin="round" stroke-linecap="round" stroke-miterlimit="4" stroke-width="1.1111"
        d="M0.526 31.177h30.878M23.436 28.371v-5.837c0-0.852-0.692-1.544-1.544-1.544h-11.854c-0.852 0-1.543 0.692-1.543 1.544v5.836">
      </path>
      <path stroke-linejoin="round" stroke-linecap="round" stroke-miterlimit="4" stroke-width="1.1111"
        d="M27.664 28.338c0.529-0.608 0.852-1.408 0.852-2.284 0-0.462-0.090-0.903-0.253-1.306l0.008 0.023-2.707-6.849c-0.93-2.307-3.15-3.905-5.743-3.905-0 0-0.001 0-0.001 0h-7.711c-2.593 0-4.813 1.598-5.728 3.863l-0.015 0.041-2.708 6.849c-0.155 0.38-0.244 0.821-0.244 1.282 0 0.876 0.323 1.676 0.856 2.289l-0.004-0.004">
      </path>
    </symbol>

    <symbol id="center-icon-3" viewBox="0 0 32 32">
      <path stroke-linejoin="round" stroke-linecap="round" stroke-miterlimit="4" stroke-width="1.1111"
        d="M1.228 22.308v-21.538h22.274c0.625 0 1.175 0.588 1.351 1.445l1.796 10.794 3.327 1.733c0.447 0.355 0.725 1.028 0.725 1.76v5.805M15.964 22.308v-17.436M27.595 26.409h3.809M11.352 26.409h9.227M0.526 26.409h3.808">
      </path>
      <path stroke-linejoin="round" stroke-linecap="round" stroke-miterlimit="4" stroke-width="1.1111"
        d="M11.353 26.41c0 2.832-1.571 5.128-3.508 5.128s-3.509-2.296-3.509-5.128 1.572-5.128 3.509-5.128c1.938 0 3.508 2.296 3.508 5.128z">
      </path>
      <path
        d="M9.16 26.41c0 1.062-0.589 1.924-1.316 1.924s-1.316-0.862-1.316-1.924c0-1.061 0.589-1.923 1.316-1.923s1.316 0.862 1.316 1.923z">
      </path>
      <path stroke-linejoin="round" stroke-linecap="round" stroke-miterlimit="4" stroke-width="1.1111"
        d="M27.595 26.41c0 2.832-1.572 5.128-3.508 5.128s-3.509-2.296-3.509-5.128 1.572-5.128 3.509-5.128c1.938 0 3.508 2.296 3.508 5.128z">
      </path>
      <path
        d="M25.402 26.41c0 1.062-0.589 1.924-1.316 1.924s-1.316-0.862-1.316-1.924c0-1.061 0.589-1.923 1.316-1.923s1.316 0.862 1.316 1.923z">
      </path>
      <path stroke-linejoin="round" stroke-linecap="round" stroke-miterlimit="4" stroke-width="1.1111"
        d="M26.651 13.008h-6.812v-8.137h5.457">
      </path>
    </symbol>

    <symbol id="center-icon-4" viewBox="0 0 32 32">
      <path stroke-linejoin="round" stroke-linecap="round" stroke-miterlimit="4" stroke-width="1.1111"
        d="M4.036 3.68h-1.781c-0.955 0-1.729 0.886-1.729 1.98v0.004c0 3.949 1.688 7.591 4.31 9.968M27.895 3.68h1.78c0.954 0 1.728 0.886 1.728 1.98v0.004c0 3.949-1.688 7.591-4.31 9.968">
      </path>
      <path stroke-linejoin="round" stroke-linecap="round" stroke-miterlimit="4" stroke-width="1.1111"
        d="M8.26 30.185h15.412M15.964 21.297v8.889"></path>
    </symbol>

    <symbol id="facebook" viewBox="0 0 32 32">
      <path fill="#fff" style="fill: var(--color1, #fff)"
        d="M17.092 32h-15.326c-0.976 0-1.766-0.791-1.766-1.766v-28.468c0-0.976 0.791-1.766 1.766-1.766h28.468c0.975 0 1.766 0.791 1.766 1.766v28.468c0 0.975-0.791 1.766-1.766 1.766h-8.154v-12.392h4.159l0.623-4.829h-4.782v-3.083c0-1.398 0.388-2.351 2.393-2.351l2.557-0.001v-4.319c-0.442-0.059-1.96-0.19-3.727-0.19-3.687 0-6.211 2.251-6.211 6.384v3.562h-4.17v4.829h4.17v12.392z">
      </path>
    </symbol>

    <symbol id="instagram" viewBox="0 0 32 32">
      <path fill="#fff" style="fill: var(--color1, #fff)"
        d="M16 0c-4.345 0-4.89 0.018-6.597 0.096-1.703 0.078-2.866 0.348-3.884 0.744-1.052 0.409-1.944 0.956-2.834 1.845s-1.437 1.782-1.845 2.834c-0.396 1.018-0.666 2.181-0.744 3.884-0.078 1.707-0.096 2.251-0.096 6.597s0.018 4.89 0.096 6.597c0.078 1.703 0.348 2.866 0.744 3.884 0.409 1.052 0.956 1.944 1.845 2.834s1.782 1.437 2.834 1.846c1.018 0.395 2.181 0.666 3.884 0.744 1.707 0.078 2.251 0.096 6.597 0.096s4.89-0.018 6.597-0.096c1.703-0.078 2.866-0.348 3.884-0.744 1.052-0.409 1.944-0.956 2.834-1.846s1.437-1.782 1.846-2.834c0.395-1.018 0.666-2.181 0.744-3.884 0.078-1.707 0.096-2.252 0.096-6.597s-0.018-4.89-0.096-6.597c-0.078-1.703-0.348-2.866-0.744-3.884-0.409-1.052-0.956-1.944-1.846-2.834s-1.782-1.437-2.834-1.845c-1.018-0.396-2.181-0.666-3.884-0.744-1.707-0.078-2.252-0.096-6.597-0.096zM16 2.883c4.272 0 4.778 0.016 6.465 0.093 1.56 0.071 2.407 0.332 2.971 0.551 0.747 0.29 1.28 0.637 1.84 1.197s0.907 1.093 1.197 1.84c0.219 0.564 0.48 1.411 0.551 2.971 0.077 1.687 0.093 2.193 0.093 6.465s-0.016 4.778-0.093 6.465c-0.071 1.56-0.332 2.407-0.551 2.971-0.29 0.747-0.637 1.28-1.197 1.84s-1.093 0.907-1.84 1.197c-0.564 0.219-1.411 0.48-2.971 0.551-1.687 0.077-2.193 0.093-6.465 0.093s-4.778-0.016-6.465-0.093c-1.56-0.071-2.407-0.332-2.971-0.551-0.747-0.29-1.28-0.637-1.84-1.197s-0.907-1.093-1.197-1.84c-0.219-0.564-0.48-1.411-0.551-2.971-0.077-1.687-0.093-2.193-0.093-6.465s0.016-4.778 0.093-6.465c0.071-1.56 0.332-2.407 0.551-2.971 0.29-0.747 0.637-1.28 1.197-1.84s1.093-0.907 1.84-1.197c0.564-0.219 1.411-0.48 2.971-0.551 1.687-0.077 2.193-0.093 6.465-0.093zM7.784 16c0 4.538 3.679 8.216 8.216 8.216s8.216-3.678 8.216-8.216c0-4.538-3.678-8.216-8.216-8.216s-8.216 3.678-8.216 8.216zM16 21.333c-2.945 0-5.333-2.388-5.333-5.333s2.388-5.333 5.333-5.333c2.945 0 5.333 2.388 5.333 5.333s-2.388 5.333-5.333 5.333zM24.541 9.379c-1.060 0-1.92-0.86-1.92-1.92s0.86-1.92 1.92-1.92c1.060 0 1.92 0.86 1.92 1.92s-0.86 1.92-1.92 1.92z">
      </path>
    </symbol>

    <symbol id="linlidin" viewBox="0 0 33 32">
      <path fill="#fff" style="fill: var(--color1, #fff)"
        d="M6.514 6.739c1.901 0 3.085-1.229 3.085-2.782-0.037-1.581-1.184-2.778-3.049-2.778-1.867 0-3.089 1.199-3.089 2.782 0 1.553 1.187 2.778 3.017 2.778h0.037zM29.405 24.766v-8.91c0-4.963-2.824-7.268-6.418-7.268-2.897 0-4.712 1.569-5.048 2.669v-2.515h-5.681c0.073 1.335 0 16.023 0 16.023h5.681v-8.671c0-0.058-0-0.115-0.001-0.172v-0c-0.002-0.422-0.005-0.832 0.124-1.137 0.391-0.964 1.23-1.963 2.738-1.963 1.973 0 2.87 1.482 2.87 3.652v8.292h5.734zM9.171 8.743v16.023h-5.057v-16.023h5.057z">
      </path>
    </symbol>

    <symbol id="pri" viewBox="0 0 32 32">
      <path fill="#fff" style="fill: var(--color1, #fff)"
        d="M16.001 0c-8.836 0-16.001 7.163-16.001 16.001 0 6.55 3.94 12.179 9.579 14.654-0.045-1.116-0.008-2.459 0.277-3.675 0.309-1.298 2.058-8.717 2.058-8.717s-0.51-1.022-0.51-2.533c0-2.371 1.375-4.141 3.086-4.141 1.454 0 2.158 1.093 2.158 2.403 0 1.462-0.933 3.65-1.413 5.677-0.401 1.699 0.85 3.082 2.525 3.082 3.031 0 5.073-3.893 5.073-8.507 0-3.505-2.361-6.13-6.657-6.13-4.852 0-7.876 3.618-7.876 7.66 0 1.396 0.41 2.378 1.054 3.138 0.297 0.352 0.337 0.491 0.229 0.894-0.075 0.292-0.252 1.003-0.325 1.283-0.107 0.404-0.435 0.551-0.8 0.401-2.237-0.913-3.278-3.361-3.278-6.113 0-4.544 3.833-9.997 11.434-9.997 6.11 0 10.13 4.424 10.13 9.167 0 6.277-3.489 10.966-8.635 10.966-1.725 0-3.351-0.933-3.908-1.993 0 0-0.93 3.686-1.125 4.397-0.339 1.232-1.003 2.467-1.611 3.426 1.439 0.425 2.96 0.657 4.535 0.657 8.836 0 15.999-7.163 15.999-15.999 0-8.838-7.163-16.001-15.999-16.001z">
      </path>
    </symbol>

    <symbol id="twiter" viewBox="0 0 32 32">
      <path fill="#fff" style="fill: var(--color1, #fff)"
        d="M32 5.824c-1.176 0.535-2.442 0.898-3.77 1.059 1.356-0.832 2.397-2.151 2.887-3.723-1.27 0.77-2.673 1.331-4.172 1.631-1.195-1.308-2.902-2.124-4.791-2.124-3.623 0-6.563 3.014-6.563 6.732 0 0.528 0.056 1.040 0.169 1.533-5.456-0.281-10.293-2.958-13.533-7.036-0.565 0.998-0.888 2.155-0.888 3.388 0 2.334 1.159 4.395 2.921 5.603-1.074-0.033-2.089-0.339-2.975-0.84v0.083c0 3.263 2.263 5.984 5.269 6.601-0.55 0.158-1.131 0.237-1.73 0.237-0.423 0-0.836-0.041-1.236-0.119 0.836 2.674 3.259 4.621 6.133 4.673-2.246 1.807-5.079 2.883-8.154 2.883-0.53 0-1.054-0.031-1.566-0.092 2.906 1.907 6.358 3.022 10.064 3.022 12.077 0 18.679-10.256 18.679-19.153 0-0.293-0.006-0.586-0.017-0.873 1.283-0.95 2.397-2.134 3.274-3.484z">
      </path>
    </symbol>
  </defs>
</svg>